<?xml version="1.0" encoding="UTF-8"?>
<!DOCTYPE svg PUBLIC "-//W3C//DTD SVG 1.1//EN" "http://www.w3.org/Graphics/SVG/1.1/DTD/svg11.dtd">
<svg xmlns="http://www.w3.org/2000/svg" version="1.1" width="512px" height="512px" style="shape-rendering:geometricPrecision; text-rendering:geometricPrecision; image-rendering:optimizeQuality; fill-rule:evenodd; clip-rule:evenodd" xmlns:xlink="http://www.w3.org/1999/xlink">
<g><path style="opacity:1" fill="#909090" d="M 16.5,-0.5 C 175.833,-0.5 335.167,-0.5 494.5,-0.5C 502.5,2.83333 508.167,8.5 511.5,16.5C 511.5,175.833 511.5,335.167 511.5,494.5C 508.167,502.5 502.5,508.167 494.5,511.5C 335.167,511.5 175.833,511.5 16.5,511.5C 8.5,508.167 2.83333,502.5 -0.5,494.5C -0.5,335.167 -0.5,175.833 -0.5,16.5C 2.83333,8.5 8.5,2.83333 16.5,-0.5 Z"/></g>
<g><path style="opacity:1" fill="#010101" d="M 123.5,50.5 C 211.501,50.3333 299.501,50.5 387.5,51C 397.567,53.3998 404.067,59.5664 407,69.5C 407.667,193.5 407.667,317.5 407,441.5C 404.193,450.974 398.026,457.14 388.5,460C 300.167,460.667 211.833,460.667 123.5,460C 114.402,457.234 108.235,451.401 105,442.5C 104.333,317.833 104.333,193.167 105,68.5C 108.441,59.5567 114.608,53.5567 123.5,50.5 Z"/></g>
<g><path style="opacity:1" fill="#6f6f6f" d="M 134.5,88.5 C 215.167,88.3333 295.834,88.5 376.5,89C 384.693,91.8593 390.193,97.3593 393,105.5C 393.667,125.167 393.667,144.833 393,164.5C 390.415,174.084 384.248,179.918 374.5,182C 294.5,182.667 214.5,182.667 134.5,182C 124.689,178.525 118.856,171.692 117,161.5C 116.833,152.667 116.667,143.833 116.5,135C 116.384,124.777 116.884,114.611 118,104.5C 121.438,96.8934 126.938,91.56 134.5,88.5 Z"/></g>
<g><path style="opacity:1" fill="#fbfbfb" d="M 137.5,211.5 C 160.821,210.322 171.988,221.322 171,244.5C 166.299,260.776 155.466,267.943 138.5,266C 119.162,258.492 112.996,244.992 120,225.5C 124.265,218.721 130.098,214.054 137.5,211.5 Z"/></g>
<g><path style="opacity:1" fill="#fcfcfc" d="M 209.5,211.5 C 233.162,210.044 244.662,221.044 244,244.5C 238.884,260.308 228.051,267.475 211.5,266C 195.385,260.608 188.218,249.441 190,232.5C 191.598,227.468 194.098,222.968 197.5,219C 201.396,216.225 205.396,213.725 209.5,211.5 Z"/></g>
<g><path style="opacity:1" fill="#fcfcfc" d="M 276.5,211.5 C 292.521,209.424 303.687,215.757 310,230.5C 312.678,254.819 301.844,266.653 277.5,266C 256.647,257.451 251.147,242.951 261,222.5C 265.478,217.694 270.644,214.027 276.5,211.5 Z"/></g>
<g><path style="opacity:1" fill="#6e6e6e" d="M 359.5,211.5 C 375.521,209.424 386.687,215.757 393,230.5C 395.678,254.819 384.844,266.653 360.5,266C 339.647,257.451 334.147,242.951 344,222.5C 348.478,217.694 353.644,214.027 359.5,211.5 Z"/></g>
<g><path style="opacity:1" fill="#fcfcfc" d="M 138.5,283.5 C 161.882,283.046 172.716,294.379 171,317.5C 165.725,333.748 154.559,340.581 137.5,338C 122.737,332.637 115.904,322.137 117,306.5C 119.909,294.76 127.076,287.094 138.5,283.5 Z"/></g>
<g><path style="opacity:1" fill="#fcfcfc" d="M 211.5,283.5 C 227.505,282.581 238.338,289.581 244,304.5C 245.333,328.834 233.833,340 209.5,338C 190.137,329.095 184.971,314.928 194,295.5C 198.84,289.847 204.673,285.847 211.5,283.5 Z"/></g>
<g><path style="opacity:1" fill="#fcfcfc" d="M 277.5,283.5 C 301.352,283.182 312.185,294.849 310,318.5C 304.258,334.126 293.092,340.626 276.5,338C 257.3,329.744 251.8,315.911 260,296.5C 264.581,290.41 270.415,286.077 277.5,283.5 Z"/></g>
<g><path style="opacity:1" fill="#6f6f6f" d="M 361.5,283.5 C 384.368,283.531 394.868,294.864 393,317.5C 387.733,333.736 376.567,340.57 359.5,338C 340.3,329.744 334.8,315.911 343,296.5C 347.689,289.964 353.856,285.631 361.5,283.5 Z"/></g>
<g><path style="opacity:1" fill="#fb3030" d="M 136.5,356.5 C 161.3,355.133 172.8,366.8 171,391.5C 162.243,410.307 148.41,415.474 129.5,407C 116.834,397.348 113.668,385.181 120,370.5C 124.174,364.15 129.674,359.484 136.5,356.5 Z"/></g>
<g><path style="opacity:1" fill="#fcfcfc" d="M 209.5,356.5 C 233.281,354.782 244.781,365.782 244,389.5C 238.922,405.293 228.089,412.46 211.5,411C 195.385,405.608 188.218,394.441 190,377.5C 192.95,367.055 199.45,360.055 209.5,356.5 Z"/></g>
<g><path style="opacity:1" fill="#fcba58" d="M 275.5,356.5 C 298.227,354.583 309.727,364.916 310,387.5C 306.057,404.732 295.224,412.565 277.5,411C 258.32,404.139 251.82,390.972 258,371.5C 262.199,364.5 268.032,359.5 275.5,356.5 Z"/></g>
<g><path style="opacity:1" fill="#6e6e6e" d="M 359.5,356.5 C 375.521,354.424 386.687,360.757 393,375.5C 395.678,399.819 384.844,411.653 360.5,411C 339.647,402.451 334.147,387.951 344,367.5C 348.478,362.694 353.644,359.027 359.5,356.5 Z"/></g>
</svg>
